<svg width="576" height="576" viewBox="0 0 576 576" fill="none" xmlns="http://www.w3.org/2000/svg">
<rect width="576" height="576" rx="283.5" fill="#6C63FF" fill-opacity="0.9"/>
<path d="M432.317 237.566C411.238 151.041 338.403 88.5814 252.911 86.0762C207.714 84.7518 160.155 100.4 125.528 155.157C63.6279 253.041 129.331 320.682 175.138 352.824C197.268 368.384 217.209 387.093 234.382 408.41C265.323 446.737 324.847 494.365 395.736 419.74C447.117 365.651 446.357 295.2 432.317 237.566Z" fill="#F2F2F2"/>
<path d="M489.531 430.253C489.531 451.492 400.746 491 288.908 491C177.07 491 85 453.942 85 432.703C85 411.464 177.07 414.087 288.908 414.087C400.746 414.087 489.531 409.015 489.531 430.253Z" fill="#3F3D56"/>
<path opacity="0.1" d="M489.531 430.253C489.531 451.492 400.746 491 288.908 491C177.07 491 85 453.942 85 432.703C85 411.464 177.07 414.087 288.908 414.087C400.746 414.087 489.531 409.015 489.531 430.253Z" fill="black"/>
<path d="M287.5 470.914C399.338 470.914 490 453.697 490 432.458C490 411.219 399.338 394.002 287.5 394.002C175.662 394.002 85 411.219 85 432.458C85 453.697 175.662 470.914 287.5 470.914Z" fill="#3F3D56"/>
<path d="M364.163 301.669V404.518L380.643 432.555L381.898 434.688H446.925L448.238 301.669H364.163Z" fill="#2F2E41"/>
<path opacity="0.1" d="M364.163 301.669V404.518L380.643 432.555L381.655 301.669H364.163Z" fill="black"/>
<path d="M207.18 298.926V401.775L190.699 429.812L189.445 431.945H124.418L123.104 298.926H207.18Z" fill="#2F2E41"/>
<path opacity="0.1" d="M207.18 298.926V401.776L190.699 429.812L189.688 298.926H207.18Z" fill="black"/>
<path d="M467.943 296.869V303.04H114.565V294.126L147.407 276.299H439.042L467.943 296.869Z" fill="#2F2E41"/>
<path opacity="0.1" d="M467.943 296.869V303.04H114.565V294.126L467.943 296.869Z" fill="black"/>
<path opacity="0.1" d="M165.142 327.724H149.378L142.809 322.924H172.367L165.142 327.724Z" fill="black"/>
<path opacity="0.1" d="M165.142 347.608H149.378L142.809 342.808H172.367L165.142 347.608Z" fill="black"/>
<path opacity="0.1" d="M165.142 375.721H149.378L142.809 370.921H172.367L165.142 375.721Z" fill="black"/>
<path opacity="0.1" d="M165.142 403.833H149.378L142.809 399.033H172.367L165.142 403.833Z" fill="black"/>
<path opacity="0.1" d="M406.201 330.466H421.965L428.533 325.667H398.975L406.201 330.466Z" fill="black"/>
<path opacity="0.1" d="M406.201 350.351H421.965L428.533 345.551H398.975L406.201 350.351Z" fill="black"/>
<path opacity="0.1" d="M406.201 378.463H421.965L428.533 373.664H398.975L406.201 378.463Z" fill="black"/>
<path opacity="0.1" d="M406.201 406.575H421.965L428.533 401.776H398.975L406.201 406.575Z" fill="black"/>
<path d="M334.906 259.141L332.715 273.743C332.715 273.743 321.929 279.725 329.513 279.901C337.097 280.077 372.826 279.901 372.826 279.901C372.826 279.901 379.736 279.901 368.782 273.567L366.591 258.261L334.906 259.141Z" fill="#3F3D56"/>
<path opacity="0.1" d="M327.987 279.742C329.46 278.499 331.043 277.405 332.715 276.475L334.906 261.873L366.591 261.904L368.782 276.299C370.582 277.269 372.279 278.435 373.845 279.777C375.252 279.442 376.789 278.197 368.782 273.567L366.591 258.261L334.906 259.141L332.715 273.743C332.715 273.743 323.651 278.77 327.987 279.742Z" fill="black"/>
<path d="M416.936 157.363H284.224C281.452 157.363 279.205 159.709 279.205 162.603V255.924C279.205 258.818 281.452 261.164 284.224 261.164H416.936C419.708 261.164 421.955 258.818 421.955 255.924V162.603C421.955 159.709 419.708 157.363 416.936 157.363Z" fill="#3F3D56"/>
<path d="M417.151 162.905H284.008V240.668H417.151V162.905Z" fill="#F2F2F2"/>
<path d="M350.58 161.322C351.045 161.322 351.422 160.928 351.422 160.442C351.422 159.956 351.045 159.562 350.58 159.562C350.114 159.562 349.737 159.956 349.737 160.442C349.737 160.928 350.114 161.322 350.58 161.322Z" fill="#F2F2F2"/>
<path d="M421.955 246.825V255.924C421.955 256.612 421.825 257.294 421.573 257.93C421.321 258.565 420.951 259.143 420.485 259.629C420.019 260.116 419.465 260.502 418.856 260.765C418.248 261.028 417.595 261.164 416.936 261.164H284.224C283.565 261.164 282.912 261.028 282.303 260.765C281.694 260.502 281.141 260.116 280.675 259.629C280.209 259.143 279.839 258.565 279.587 257.93C279.335 257.294 279.205 256.612 279.205 255.924V246.825H421.955Z" fill="#3F3D56"/>
<path d="M350.58 257.381C352.348 257.381 353.782 255.885 353.782 254.039C353.782 252.192 352.348 250.696 350.58 250.696C348.811 250.696 347.378 252.192 347.378 254.039C347.378 255.885 348.811 257.381 350.58 257.381Z" fill="#F2F2F2"/>
<path d="M345.59 289.401V291.161H254.917V289.753L255.042 289.401L257.277 283.068H343.736L345.59 289.401Z" fill="#3F3D56"/>
<path d="M380.483 287.679C380.318 288.416 379.695 289.193 378.286 289.929C373.23 292.568 362.949 289.225 362.949 289.225C362.949 289.225 355.028 287.818 355.028 284.123C355.25 283.964 355.482 283.82 355.722 283.692C357.848 282.518 364.896 279.621 377.393 283.815C378.314 284.116 379.136 284.679 379.769 285.44C380.049 285.727 380.26 286.08 380.384 286.469C380.508 286.859 380.542 287.273 380.483 287.679V287.679Z" fill="#3F3D56"/>
<path opacity="0.1" d="M380.483 287.679C374.295 290.154 368.779 290.339 363.118 286.234C360.263 284.165 357.669 283.653 355.722 283.692C357.848 282.518 364.896 279.621 377.393 283.815C378.314 284.116 379.136 284.679 379.769 285.44C380.049 285.727 380.26 286.08 380.384 286.469C380.508 286.859 380.542 287.273 380.483 287.679V287.679Z" fill="black"/>
<path d="M372.724 286.234C373.934 286.234 374.915 285.919 374.915 285.531C374.915 285.142 373.934 284.827 372.724 284.827C371.514 284.827 370.533 285.142 370.533 285.531C370.533 285.919 371.514 286.234 372.724 286.234Z" fill="#F2F2F2"/>
<path opacity="0.1" d="M345.59 289.401V291.161H254.917V289.753L255.042 289.401H345.59Z" fill="black"/>
<path d="M397.405 199.631C396.69 198.884 387.509 186.811 385.959 184.82C384.29 182.828 383.575 183.202 382.502 183.326C381.429 183.451 369.863 185.567 368.552 185.691C367.24 185.94 366.406 186.438 367.24 187.682C367.956 188.803 375.586 200.004 377.256 202.618L346.852 210.21L322.767 168.017C321.813 166.524 321.575 166.026 319.429 166.15C317.283 166.275 300.471 167.768 299.279 167.768C298.086 167.893 296.775 168.39 297.967 171.378C299.16 174.365 318.236 217.18 318.713 218.425C319.19 219.67 320.621 221.661 323.84 220.914C327.179 220.043 338.625 216.931 344.944 215.189C348.282 221.412 354.959 234.107 356.271 235.974C357.94 238.464 359.132 237.966 361.636 237.219C363.663 236.597 392.875 225.644 394.186 225.021C395.498 224.399 396.332 224.026 395.379 222.657C394.663 221.661 387.032 210.833 382.979 205.232C385.721 204.485 395.617 201.747 396.69 201.373C397.882 201 398.121 200.378 397.405 199.631V199.631ZM342.202 211.455C341.844 211.579 324.794 215.811 323.959 216.06C323.006 216.309 323.006 216.185 323.006 215.811C322.767 215.438 302.736 172.124 302.379 171.627C302.14 171.129 302.14 170.631 302.379 170.631C302.617 170.631 318.475 169.137 318.952 169.137C319.548 169.137 319.429 169.262 319.667 169.635C319.667 169.635 341.963 209.837 342.321 210.459C342.798 211.082 342.559 211.33 342.202 211.455V211.455ZM390.132 220.79C390.371 221.288 390.729 221.537 389.775 221.785C388.94 222.159 361.04 231.991 360.444 232.24C359.848 232.489 359.49 232.614 358.775 231.494C358.059 230.373 348.998 214.069 348.998 214.069L378.686 205.979C379.402 205.73 379.64 205.605 380.117 206.352C380.594 207.223 389.894 220.416 390.132 220.79V220.79ZM392.04 198.884C391.325 199.009 380.475 201.871 380.475 201.871L371.532 189.176C371.294 188.803 371.056 188.429 371.652 188.305C372.248 188.18 382.382 186.313 382.859 186.189C383.336 186.064 383.694 185.94 384.29 186.811C384.886 187.558 392.517 197.764 392.875 198.137C393.232 198.511 392.755 198.76 392.04 198.884V198.884Z" fill="#FB503B"/>
<path d="M270.201 181.108C280.114 181.108 288.15 172.719 288.15 162.371C288.15 152.023 280.114 143.635 270.201 143.635C260.288 143.635 252.253 152.023 252.253 162.371C252.253 172.719 260.288 181.108 270.201 181.108Z" fill="#FFB9B9"/>
<path d="M256.976 171.74V201.324H286.261C286.261 201.324 282.482 176.67 284.372 169.274L256.976 171.74Z" fill="#FFB9B9"/>
<path d="M315.074 211.678C315.074 211.678 287.206 197.379 287.206 196.393C287.206 195.407 284.372 188.997 282.482 188.997C280.593 188.997 264.533 183.573 255.559 191.462L254.614 197.872L220.133 221.54L229.58 257.534C229.58 257.534 235.721 264.437 233.831 269.368C231.942 274.298 235.248 299.445 235.248 299.445L309.406 296.98V263.451C309.406 263.451 311.767 255.562 313.184 253.096C314.601 250.631 313.184 243.235 313.184 243.235L324.52 228.443C324.52 228.443 323.103 214.637 315.074 211.678Z" fill="#D0CDE1"/>
<path opacity="0.1" d="M221.314 233.62L223.44 221.54C223.44 221.54 211.159 277.257 212.576 283.667C213.993 290.077 224.384 299.938 225.802 300.431C227.219 300.924 240.444 258.027 240.444 258.027L221.314 233.62Z" fill="black"/>
<path d="M228.163 220.061L220.133 221.54C220.133 221.54 207.853 277.257 209.27 283.667C210.687 290.077 221.078 299.938 222.495 300.431C223.912 300.924 237.138 258.027 237.138 258.027L228.163 220.061Z" fill="#D0CDE1"/>
<path opacity="0.1" d="M317.672 236.579L321.686 228.443C321.686 228.443 327.355 284.16 323.576 289.584C319.797 295.008 304.85 297.037 304.85 297.037L304.682 256.548L317.672 236.579Z" fill="black"/>
<path d="M318.38 222.033L324.52 228.443C324.52 228.443 330.189 284.16 326.41 289.584C322.631 295.008 307.684 297.037 307.684 297.037L307.516 256.548L318.38 222.033Z" fill="#D0CDE1"/>
<path d="M226.746 306.841C226.746 306.841 213.048 301.417 210.687 311.772C208.325 322.126 216.355 368.475 216.355 368.475C216.355 368.475 221.55 403.483 224.857 404.469C228.163 405.456 242.806 405.949 245.167 401.511C247.529 397.073 238.082 351.711 238.082 351.711L292.874 350.725C292.874 350.725 289.567 390.17 287.678 393.622C285.789 397.073 285.789 408.907 287.678 408.907C289.567 408.907 310.35 407.921 311.767 404.962C313.184 402.004 321.214 335.439 321.214 335.439C321.214 335.439 327.827 312.265 320.269 313.744C312.712 315.223 226.746 306.841 226.746 306.841Z" fill="#3F3D56"/>
<path d="M307.516 402.99C307.516 402.99 312.24 399.539 314.601 402.99C316.963 406.442 317.908 410.386 307.516 416.303C297.125 422.22 289.095 420.741 289.095 419.755V405.455L307.516 402.99Z" fill="#2F2E41"/>
<path d="M225.802 401.511C225.802 401.511 221.078 398.059 218.716 401.511C216.355 404.962 215.41 408.907 225.802 414.824C236.193 420.741 244.223 419.262 244.223 418.275V403.976L225.802 401.511Z" fill="#2F2E41"/>
<path d="M270.318 138.746C268.53 138.681 266.745 138.947 265.046 139.531C263.728 140.084 262.47 140.779 261.29 141.605L253.366 146.749C252.693 147.053 252.122 147.558 251.724 148.2C251.326 148.843 251.119 149.594 251.129 150.359L250.139 158.1C249.889 160.054 249.659 162.143 250.497 163.91C251.196 165.384 252.529 166.393 253.626 167.574C255.381 169.473 256.562 171.868 257.022 174.462C257.589 177.694 257.226 181.587 259.676 183.649C261.003 184.766 262.811 184.977 264.513 185.081C269.165 185.365 273.833 185.177 278.451 184.521C279.185 184.464 279.901 184.254 280.557 183.905C281.39 183.391 281.914 182.483 282.404 181.612C284.174 178.467 285.998 175.121 285.979 171.474C285.969 169.67 285.527 167.732 286.357 166.149C286.795 165.476 287.271 164.831 287.782 164.216C288.81 162.709 289.01 160.772 289.177 158.931C289.712 153.048 289.153 148.571 285 144.427C281.122 140.558 275.606 138.782 270.318 138.746Z" fill="#2F2E41"/>
<path d="M226.228 365.092L210.464 448.744H218.345L233.453 366.464L226.228 365.092Z" fill="#2F2E41"/>
<path d="M276.804 371.949L286.657 467.943H293.225L287.313 369.207L276.804 371.949Z" fill="#2F2E41"/>
<path d="M303.734 369.207L317.528 432.974H324.096L310.96 367.835L303.734 369.207Z" fill="#2F2E41"/>
<path d="M251.187 369.207L249.217 419.946H254.472L258.413 369.207H251.187Z" fill="#2F2E41"/>
<path d="M215.061 356.179C215.061 356.179 204.552 282.813 234.11 280.756C263.667 278.699 305.705 280.756 305.705 280.756C305.705 280.756 330.008 278.699 322.783 356.179C322.783 356.179 329.351 378.806 270.236 376.749C211.12 374.692 215.061 356.179 215.061 356.179Z" fill="#00BFA6"/>
<path d="M484.368 386.139C484.368 398.933 477.083 403.4 468.095 403.4C459.108 403.4 451.822 398.933 451.822 386.139C451.822 373.345 468.095 357.07 468.095 357.07C468.095 357.07 484.368 373.345 484.368 386.139Z" fill="#00BFA6"/>
<path d="M467.669 390.736L474.605 377.49L467.695 389.056L467.77 384.242L472.55 374.658L467.79 382.968L467.924 374.309L473.043 366.679L467.946 372.947L468.03 357.07L467.524 377.188L462.34 368.906L467.461 378.886L466.976 388.556L466.961 388.3L460.962 379.549L466.943 389.206L466.883 390.416L466.872 390.434L466.877 390.534L465.647 403.438H467.29L467.488 402.396L473.455 392.761L467.502 401.443L467.669 390.736Z" fill="#3F3D56"/>
<path d="M478.488 431.152H459.087L454.073 401.57H482.412L478.488 431.152Z" fill="#2F2E41"/>
<path d="M193.407 231.155H153.047V280.55H193.407V231.155Z" fill="#3F3D56"/>
<path d="M187.144 238.82H159.31V272.885H187.144V238.82Z" fill="#F2F2F2"/>
<path d="M176.017 246.054L173.19 251.165L170.364 246.054H160.952L173.19 268.183L185.429 246.054H176.017Z" fill="#4DBA87"/>
<path d="M176.017 246.054L173.19 251.165L170.364 246.054H165.847L173.19 259.331L180.533 246.054H176.017Z" fill="#435466"/>
</svg>
