<svg width="565" height="565" viewBox="0 0 565 565" fill="none" xmlns="http://www.w3.org/2000/svg">
<path d="M484.528 211.444C455.122 90.7356 353.513 3.60125 234.247 0.106369C171.194 -1.74129 104.845 20.0883 56.5384 96.478C-29.8154 233.033 61.8451 327.396 125.748 372.236C156.621 393.943 184.44 420.043 208.397 449.781C251.562 503.251 334.601 569.695 433.496 465.588C505.176 390.131 504.116 291.847 484.528 211.444Z" fill="#6C63FF"/>
<path d="M564.345 480.255C564.345 509.884 440.484 565 284.464 565C128.444 565 0 513.302 0 483.672C0 454.042 128.444 457.702 284.464 457.702C440.484 457.702 564.345 450.625 564.345 480.255Z" fill="#3F3D56"/>
<path opacity="0.1" d="M564.345 480.255C564.345 509.884 440.484 565 284.464 565C128.444 565 0 513.302 0 483.672C0 454.042 128.444 457.702 284.464 457.702C440.484 457.702 564.345 450.625 564.345 480.255Z" fill="black"/>
<path d="M282.5 536.98C438.52 536.98 565 512.96 565 483.33C565 453.701 438.52 429.681 282.5 429.681C126.48 429.681 0 453.701 0 483.33C0 512.96 126.48 536.98 282.5 536.98Z" fill="#3F3D56"/>
<path d="M389.45 300.871V444.353L412.441 483.466L414.191 486.441H504.907L506.739 300.871H389.45Z" fill="#2F2E41"/>
<path opacity="0.1" d="M389.45 300.871V444.353L412.441 483.466L413.852 300.871H389.45Z" fill="black"/>
<path d="M170.448 297.045V440.526L147.457 479.64L145.707 482.615H54.9903L53.1578 297.045H170.448Z" fill="#2F2E41"/>
<path opacity="0.1" d="M170.448 297.045V440.526L147.457 479.64L146.046 297.045H170.448Z" fill="black"/>
<path d="M534.229 294.175V302.784H41.2457V290.349L87.0617 265.479H493.911L534.229 294.175Z" fill="#2F2E41"/>
<path opacity="0.1" d="M534.229 294.175V302.784H41.2457V290.349L534.229 294.175Z" fill="black"/>
<path opacity="0.1" d="M111.803 337.22H89.8108L80.6477 330.524H121.882L111.803 337.22Z" fill="black"/>
<path opacity="0.1" d="M111.803 364.96H89.8108L80.6477 358.263H121.882L111.803 364.96Z" fill="black"/>
<path opacity="0.1" d="M111.803 404.178H89.8108L80.6477 397.482H121.882L111.803 404.178Z" fill="black"/>
<path opacity="0.1" d="M111.803 443.396H89.8108L80.6477 436.7H121.882L111.803 443.396Z" fill="black"/>
<path opacity="0.1" d="M448.095 341.046H470.087L479.25 334.35H438.015L448.095 341.046Z" fill="black"/>
<path opacity="0.1" d="M448.095 368.786H470.087L479.25 362.09H438.015L448.095 368.786Z" fill="black"/>
<path opacity="0.1" d="M448.095 408.004H470.087L479.25 401.308H438.015L448.095 408.004Z" fill="black"/>
<path opacity="0.1" d="M448.095 447.223H470.087L479.25 440.526H438.015L448.095 447.223Z" fill="black"/>
<path d="M348.634 241.542L345.578 261.913C345.578 261.913 330.53 270.258 341.11 270.503C351.691 270.749 401.536 270.503 401.536 270.503C401.536 270.503 411.176 270.503 395.893 261.668L392.836 240.315L348.634 241.542Z" fill="#3F3D56"/>
<path opacity="0.1" d="M338.982 270.282C341.037 268.548 343.245 267.022 345.578 265.725L348.634 245.354L392.836 245.397L395.893 265.479C398.404 266.832 400.772 268.459 402.956 270.331C404.919 269.863 407.064 268.126 395.893 261.668L392.836 240.315L348.634 241.542L345.578 261.913C345.578 261.913 332.933 268.926 338.982 270.282Z" fill="black"/>
<path d="M463.071 99.5563H277.93C274.063 99.5563 270.928 102.829 270.928 106.865V237.055C270.928 241.092 274.063 244.364 277.93 244.364H463.071C466.938 244.364 470.073 241.092 470.073 237.055V106.865C470.073 102.829 466.938 99.5563 463.071 99.5563Z" fill="#3F3D56"/>
<path d="M463.372 107.288H277.629V215.771H463.372V107.288Z" fill="#F2F2F2"/>
<path d="M370.5 105.079C371.149 105.079 371.676 104.529 371.676 103.851C371.676 103.174 371.149 102.624 370.5 102.624C369.851 102.624 369.325 103.174 369.325 103.851C369.325 104.529 369.851 105.079 370.5 105.079Z" fill="#F2F2F2"/>
<path d="M470.073 224.361V237.055C470.073 238.015 469.892 238.965 469.54 239.852C469.188 240.739 468.672 241.545 468.022 242.224C467.372 242.902 466.6 243.441 465.75 243.808C464.901 244.175 463.99 244.364 463.071 244.364H277.93C277.01 244.364 276.1 244.175 275.25 243.808C274.401 243.441 273.629 242.902 272.978 242.224C272.328 241.545 271.812 240.739 271.461 239.852C271.109 238.965 270.928 238.015 270.928 237.055V224.361H470.073Z" fill="#3F3D56"/>
<path d="M370.5 239.087C372.967 239.087 374.967 237 374.967 234.424C374.967 231.849 372.967 229.761 370.5 229.761C368.033 229.761 366.033 231.849 366.033 234.424C366.033 237 368.033 239.087 370.5 239.087Z" fill="#F2F2F2"/>
<path d="M363.539 283.757V286.212H237.045V284.248L237.219 283.757L240.337 274.921H360.953L363.539 283.757Z" fill="#3F3D56"/>
<path d="M412.218 281.354C411.987 282.383 411.117 283.467 409.152 284.493C402.098 288.175 387.756 283.512 387.756 283.512C387.756 283.512 376.705 281.548 376.705 276.394C377.016 276.172 377.339 275.971 377.674 275.793C380.64 274.155 390.472 270.114 407.907 275.964C409.191 276.385 410.338 277.169 411.221 278.231C411.611 278.632 411.906 279.124 412.079 279.667C412.252 280.21 412.3 280.788 412.218 281.354V281.354Z" fill="#3F3D56"/>
<path opacity="0.1" d="M412.218 281.354C403.584 284.808 395.889 285.065 387.991 279.339C384.008 276.453 380.39 275.739 377.674 275.793C380.64 274.155 390.472 270.114 407.907 275.964C409.191 276.385 410.338 277.169 411.221 278.231C411.611 278.632 411.906 279.124 412.079 279.667C412.252 280.21 412.3 280.788 412.218 281.354V281.354Z" fill="black"/>
<path d="M401.393 279.339C403.081 279.339 404.449 278.9 404.449 278.357C404.449 277.815 403.081 277.376 401.393 277.376C399.705 277.376 398.336 277.815 398.336 278.357C398.336 278.9 399.705 279.339 401.393 279.339Z" fill="#F2F2F2"/>
<path opacity="0.1" d="M363.539 283.757V286.212H237.045V284.248L237.219 283.757H363.539Z" fill="black"/>
<path d="M435.825 158.522C434.827 157.48 422.019 140.638 419.857 137.86C417.528 135.081 416.53 135.602 415.033 135.776C413.536 135.95 397.402 138.901 395.572 139.075C393.742 139.422 392.578 140.117 393.742 141.853C394.74 143.416 405.386 159.043 407.714 162.689L365.299 173.281L331.7 114.419C330.369 112.335 330.036 111.641 327.042 111.814C324.048 111.988 300.595 114.072 298.932 114.072C297.269 114.245 295.439 114.94 297.102 119.107C298.766 123.274 325.379 183.005 326.045 184.741C326.71 186.477 328.706 189.255 333.197 188.214C337.854 186.998 353.822 182.657 362.638 180.226C367.295 188.908 376.61 206.619 378.44 209.223C380.768 212.696 382.432 212.001 385.925 210.96C388.752 210.092 429.504 194.812 431.334 193.944C433.164 193.075 434.328 192.554 432.997 190.644C431.999 189.255 421.354 174.149 415.698 166.336C419.524 165.294 433.33 161.474 434.827 160.953C436.49 160.432 436.823 159.564 435.825 158.522V158.522ZM358.812 175.017C358.313 175.191 334.528 181.095 333.363 181.442C332.032 181.789 332.033 181.616 332.033 181.095C331.7 180.574 303.756 120.149 303.257 119.454C302.924 118.76 302.924 118.065 303.257 118.065C303.589 118.065 325.712 115.982 326.377 115.982C327.209 115.982 327.042 116.155 327.375 116.676C327.375 116.676 358.48 172.76 358.979 173.628C359.644 174.496 359.311 174.844 358.812 175.017V175.017ZM425.678 188.04C426.011 188.735 426.51 189.082 425.179 189.429C424.015 189.95 385.093 203.667 384.261 204.014C383.43 204.362 382.931 204.535 381.933 202.973C380.935 201.41 368.293 178.664 368.293 178.664L409.71 167.377C410.708 167.03 411.041 166.857 411.706 167.898C412.372 169.114 425.346 187.519 425.678 188.04V188.04ZM428.34 157.48C427.342 157.654 412.205 161.648 412.205 161.648L399.73 143.937C399.398 143.416 399.065 142.895 399.897 142.721C400.728 142.548 414.867 139.943 415.532 139.77C416.197 139.596 416.696 139.422 417.528 140.638C418.36 141.68 429.005 155.918 429.504 156.438C430.003 156.959 429.338 157.307 428.34 157.48V157.48Z" fill="#FB503B"/>
<path d="M258.367 132.682C272.197 132.682 283.407 120.979 283.407 106.543C283.407 92.1066 272.197 80.4039 258.367 80.4039C244.538 80.4039 233.328 92.1066 233.328 106.543C233.328 120.979 244.538 132.682 258.367 132.682Z" fill="#FFB9B9"/>
<path d="M239.917 119.612V160.884H280.771C280.771 160.884 275.5 126.491 278.136 116.173L239.917 119.612Z" fill="#FFB9B9"/>
<path d="M320.967 175.329C320.967 175.329 282.089 155.381 282.089 154.005C282.089 152.63 278.136 143.687 275.5 143.687C272.864 143.687 250.46 136.121 237.94 147.127L236.622 156.069L188.519 189.087L201.698 239.301C201.698 239.301 210.265 248.931 207.629 255.809C204.993 262.688 209.606 297.769 209.606 297.769L313.06 294.33V247.555C313.06 247.555 316.354 236.549 318.331 233.11C320.308 229.671 318.331 219.353 318.331 219.353L334.146 198.717C334.146 198.717 332.169 179.456 320.967 175.329Z" fill="#D0CDE1"/>
<path opacity="0.1" d="M190.167 205.939L193.132 189.087C193.132 189.087 176 266.815 177.976 275.757C179.953 284.7 194.45 298.457 196.427 299.145C198.404 299.833 216.854 239.989 216.854 239.989L190.167 205.939Z" fill="black"/>
<path d="M199.721 187.023L188.519 189.087C188.519 189.087 171.387 266.815 173.364 275.758C175.341 284.7 189.837 298.457 191.814 299.145C193.791 299.833 212.241 239.989 212.241 239.989L199.721 187.023Z" fill="#D0CDE1"/>
<path opacity="0.1" d="M324.591 210.066L330.192 198.717C330.192 198.717 338.099 276.445 332.828 284.012C327.556 291.578 306.704 294.41 306.704 294.41L306.47 237.925L324.591 210.066Z" fill="black"/>
<path d="M325.58 189.774L334.146 198.717C334.146 198.717 342.053 276.445 336.782 284.012C331.51 291.578 310.657 294.41 310.657 294.41L310.424 237.925L325.58 189.774Z" fill="#D0CDE1"/>
<path d="M197.745 308.087C197.745 308.087 178.635 300.521 175.341 314.966C172.046 329.411 183.248 394.07 183.248 394.07C183.248 394.07 190.496 442.909 195.109 444.284C199.721 445.66 220.149 446.348 223.443 440.157C226.738 433.966 213.559 370.683 213.559 370.683L289.997 369.307C289.997 369.307 285.384 424.336 282.748 429.151C280.112 433.966 280.112 450.475 282.748 450.475C285.384 450.475 314.377 449.099 316.354 444.972C318.331 440.845 329.533 347.983 329.533 347.983C329.533 347.983 338.758 315.654 328.215 317.717C317.672 319.781 197.745 308.087 197.745 308.087Z" fill="#3F3D56"/>
<path d="M310.424 442.221C310.424 442.221 317.013 437.406 320.308 442.221C323.603 447.036 324.921 452.539 310.424 460.793C295.927 469.048 284.725 466.984 284.725 465.608V445.66L310.424 442.221Z" fill="#2F2E41"/>
<path d="M196.427 440.157C196.427 440.157 189.837 435.342 186.543 440.157C183.248 444.972 181.93 450.475 196.427 458.73C210.924 466.984 222.126 464.92 222.126 463.545V443.597L196.427 440.157Z" fill="#2F2E41"/>
<path d="M258.53 73.5843C256.036 73.4938 253.546 73.8643 251.175 74.6785C249.337 75.4499 247.581 76.4197 245.936 77.5722L234.881 84.7483C233.943 85.1723 233.145 85.877 232.59 86.7734C232.035 87.6698 231.746 88.7178 231.761 89.7852L230.379 100.585C230.031 103.31 229.709 106.224 230.878 108.689C231.854 110.745 233.714 112.153 235.244 113.801C237.691 116.45 239.339 119.792 239.981 123.41C240.772 127.919 240.266 133.349 243.684 136.227C245.535 137.785 248.057 138.079 250.431 138.224C256.922 138.62 263.434 138.358 269.876 137.443C270.9 137.363 271.899 137.071 272.814 136.584C273.976 135.866 274.707 134.6 275.391 133.384C277.86 128.997 280.404 124.33 280.377 119.242C280.364 116.724 279.747 114.021 280.905 111.813C281.517 110.874 282.181 109.974 282.894 109.117C284.327 107.014 284.606 104.312 284.84 101.743C285.586 93.5356 284.806 87.2901 279.012 81.5089C273.603 76.1122 265.907 73.6339 258.53 73.5843Z" fill="#2F2E41"/>
<path d="M197.021 389.351L175.03 506.05H186.025L207.101 391.265L197.021 389.351Z" fill="#2F2E41"/>
<path d="M267.578 398.917L281.324 532.834H290.487L282.239 395.091L267.578 398.917Z" fill="#2F2E41"/>
<path d="M305.148 395.091L324.391 484.05H333.554L315.227 393.178L305.148 395.091Z" fill="#2F2E41"/>
<path d="M231.842 395.091L229.093 465.875H236.423L241.921 395.091H231.842Z" fill="#2F2E41"/>
<path d="M181.444 376.916C181.444 376.916 166.782 274.566 208.017 271.696C249.252 268.827 307.897 271.696 307.897 271.696C307.897 271.696 341.801 268.827 331.721 376.916C331.721 376.916 340.885 408.482 258.415 405.613C175.946 402.743 181.444 376.916 181.444 376.916Z" fill="#00BFA6"/>
<path d="M557.144 418.713C557.144 436.561 546.98 442.792 534.441 442.792C521.903 442.792 511.739 436.561 511.739 418.713C511.739 400.865 534.441 378.159 534.441 378.159C534.441 378.159 557.144 400.865 557.144 418.713Z" fill="#00BFA6"/>
<path d="M533.847 425.125L543.523 406.646L533.883 422.782L533.988 416.066L540.657 402.696L534.015 414.288L534.203 402.209L541.345 391.565L534.233 400.309L534.351 378.159L533.644 406.226L526.412 394.671L533.556 408.594L532.88 422.085L532.86 421.727L524.49 409.518L532.834 422.992L532.75 424.679L532.735 424.704L532.742 424.843L531.025 442.846H533.319L533.594 441.392L541.918 427.951L533.614 440.062L533.847 425.125Z" fill="#3F3D56"/>
<path d="M548.94 481.509H521.875L514.88 440.239H554.414L548.94 481.509Z" fill="#2F2E41"/>
<path d="M151.234 202.5H94.9305V271.409H151.234V202.5Z" fill="#3F3D56"/>
<path d="M142.497 213.193H103.667V260.716H142.497V213.193Z" fill="#F2F2F2"/>
<path d="M126.974 223.286L123.031 230.415L119.087 223.286H105.957L123.031 254.157L140.104 223.286H126.974Z" fill="#4DBA87"/>
<path d="M126.974 223.286L123.031 230.415L119.087 223.286H112.787L123.031 241.807L133.275 223.286H126.974Z" fill="#435466"/>
</svg>
